<svg width="960" height="600" viewBox="0 0 960 600" fill="none" xmlns="http://www.w3.org/2000/svg">
  <defs>
    <linearGradient id="bg" x1="480" y1="0" x2="480" y2="600" gradientUnits="userSpaceOnUse">
      <stop stop-color="#111111"/>
      <stop offset="1" stop-color="#050505"/>
    </linearGradient>
    <linearGradient id="panel" x1="0" y1="0" x2="0" y2="1">
      <stop stop-color="#141414"/>
      <stop offset="1" stop-color="#090909"/>
    </linearGradient>
  </defs> 

  <rect width="960" height="600" rx="32" fill="url(#bg)"/>
  <rect x="20" y="20" width="920" height="560" rx="28" fill="#070707" stroke="#222222"/>
  <rect x="20" y="20" width="920" height="64" rx="28" fill="#0B0B0B"/>
  <path d="M20 84H940" stroke="#1F1F1F"/>

  <g transform="translate(44 40)">
    <rect width="28" height="28" rx="8" fill="#F5F5F5"/>
    <circle cx="10" cy="10" r="2" fill="#0A0A0A"/>
    <circle cx="18" cy="10" r="2" fill="#0A0A0A"/>
    <circle cx="10" cy="18" r="2" fill="#0A0A0A"/>
    <circle cx="18" cy="18" r="2" fill="#0A0A0A"/>
    <text x="42" y="12" fill="#F5F5F5" font-family="Arial, Helvetica, sans-serif" font-size="22" font-weight="700">Task navigator</text>
    <rect x="170" y="0" width="92" height="28" rx="14" fill="#131313" stroke="#2A2A2A"/>
    <text x="194" y="18" fill="#8A8A8A" font-family="Arial, Helvetica, sans-serif" font-size="12" font-weight="700" letter-spacing="1.8">RUN SAFE</text>
  </g>

  <g transform="translate(736 40)">
    <text x="0" y="12" fill="#777777" font-family="Arial, Helvetica, sans-serif" font-size="12" font-weight="700" letter-spacing="1.6">CURRENT TASK</text>
    <rect x="108" y="0" width="84" height="28" rx="14" fill="#0F0F0F" stroke="#2A2A2A"/>
    <circle cx="126" cy="14" r="5" fill="#2EE6FF"/>
    <text x="137" y="18" fill="#D4D4D4" font-family="Arial, Helvetica, sans-serif" font-size="12" font-weight="700" letter-spacing="1.4">OPEN</text>
  </g>

  <rect x="56" y="118" width="848" height="412" rx="26" fill="url(#panel)" stroke="#212121"/>
  <text x="82" y="154" fill="#6F6F6F" font-family="Arial, Helvetica, sans-serif" font-size="11" font-weight="700" letter-spacing="2.4">SELECTED TASK</text>

  <g transform="translate(82 176)">
    <rect width="796" height="112" rx="18" fill="#151515" stroke="#2EE6FF"/>
    <rect width="5" height="112" rx="2.5" fill="#2EE6FF"/>
    <circle cx="26" cy="28" r="12" fill="#0E0E0E" stroke="#2A2A2A"/>
    <text x="22" y="33" fill="#F5F5F5" font-family="Arial, Helvetica, sans-serif" font-size="14" font-weight="700">1</text>
    <text x="52" y="34" fill="#FAFAFA" font-family="Arial, Helvetica, sans-serif" font-size="28" font-weight="700">Fix auth flow</text>
    <rect x="666" y="18" width="88" height="24" rx="12" fill="#101010" stroke="#2A2A2A"/>
    <text x="710" y="34" text-anchor="middle" fill="#8A8A8A" font-family="Arial, Helvetica, sans-serif" font-size="11" font-weight="700" letter-spacing="1.3">SAFE PATCH</text>
    <text x="52" y="68" fill="#D0D0D0" font-family="Arial, Helvetica, sans-serif" font-size="19">Preserve intended destination after the OAuth callback.</text>
    <text x="52" y="94" fill="#8F8F8F" font-family="Arial, Helvetica, sans-serif" font-size="16">The agent reads the relevant files, drafts the change, and applies only the guarded fix.</text>
  </g>

  <g transform="translate(82 312)">
    <rect width="520" height="166" rx="18" fill="#101010" stroke="#232323"/>
    <text x="22" y="28" fill="#7A7A7A" font-family="Arial, Helvetica, sans-serif" font-size="10" font-weight="700" letter-spacing="1.8">PLAN</text>
    <text x="22" y="62" fill="#F1F1F1" font-family="Arial, Helvetica, sans-serif" font-size="19" font-weight="700">1. Read app/auth/callback/page.tsx</text>
    <text x="22" y="92" fill="#D0D0D0" font-family="Arial, Helvetica, sans-serif" font-size="18">2. Trace normalizeReturnTo and fallback logic</text>
    <text x="22" y="122" fill="#D0D0D0" font-family="Arial, Helvetica, sans-serif" font-size="18">3. Draft guarded redirect patch</text>
    <circle cx="27" cy="146" r="6" fill="#2EE6FF"/>
    <text x="42" y="151" fill="#D4D4D4" font-family="Arial, Helvetica, sans-serif" font-size="17" font-weight="700">Running</text>
  </g>

  <g transform="translate(622 312)">
    <rect width="256" height="166" rx="18" fill="#101010" stroke="#232323"/>
    <text x="22" y="28" fill="#7A7A7A" font-family="Arial, Helvetica, sans-serif" font-size="10" font-weight="700" letter-spacing="1.8">PATCH SUMMARY</text>
    <text x="22" y="64" fill="#F3F3F3" font-family="Arial, Helvetica, sans-serif" font-size="34" font-weight="700">2</text>
    <text x="58" y="64" fill="#AFAFAF" font-family="Arial, Helvetica, sans-serif" font-size="16">files touched</text>
    <text x="22" y="98" fill="#F3F3F3" font-family="Arial, Helvetica, sans-serif" font-size="34" font-weight="700">12</text>
    <text x="70" y="98" fill="#AFAFAF" font-family="Arial, Helvetica, sans-serif" font-size="16">edits drafted</text>
    <text x="22" y="132" fill="#F3F3F3" font-family="Arial, Helvetica, sans-serif" font-size="34" font-weight="700">3/2</text>
    <text x="78" y="132" fill="#AFAFAF" font-family="Arial, Helvetica, sans-serif" font-size="16">checks / files</text>
  </g>
</svg>